<?xml version="1.0" standalone="no"?>
<!DOCTYPE svg PUBLIC "-//W3C//DTD SVG 20010904//EN"
 "http://www.w3.org/TR/2001/REC-SVG-20010904/DTD/svg10.dtd">
<svg version="1.0" xmlns="http://www.w3.org/2000/svg"
 width="500.000000pt" height="500.000000pt" viewBox="0 0 500.000000 500.000000"
 preserveAspectRatio="xMidYMid meet">

<g transform="translate(0.000000,500.000000) scale(0.100000,-0.100000)"
fill="#000000" stroke="none">
<path d="M790 2515 l0 -215 59 0 60 0 3 53 3 52 65 6 c37 3 80 13 98 24 46 27
76 94 69 152 -6 57 -31 92 -87 121 -38 19 -60 22 -157 22 l-113 0 0 -215z
m218 93 c17 -15 15 -63 -4 -82 -9 -9 -32 -16 -55 -16 l-39 0 0 53 c0 30 3 57
7 61 10 9 74 -2 91 -16z"/>
<path d="M1255 2524 c-44 -114 -81 -211 -83 -215 -2 -5 26 -9 63 -9 64 0 66 1
76 30 11 30 12 30 85 30 74 0 75 0 85 -30 11 -29 13 -30 75 -30 35 0 64 4 64
8 0 4 -15 46 -34 93 -18 46 -55 139 -81 207 l-47 122 -62 0 -61 0 -80 -206z
m181 -50 c6 -23 4 -24 -41 -24 -33 0 -46 4 -43 13 3 6 13 36 24 65 l19 54 17
-42 c10 -24 21 -53 24 -66z"/>
<path d="M1649 2683 c10 -27 46 -123 81 -215 l63 -168 61 0 61 0 78 208 c42
114 77 210 77 215 0 4 -28 7 -63 7 l-63 0 -34 -97 c-61 -176 -51 -173 -101
-29 l-44 126 -67 0 -68 0 19 -47z"/>
<path d="M2130 2515 l0 -215 60 0 60 0 0 215 0 215 -60 0 -60 0 0 -215z"/>
<path d="M2310 2675 l0 -55 65 0 65 0 0 -160 0 -160 65 0 65 0 0 160 0 160 65
0 65 0 0 55 0 55 -195 0 -195 0 0 -55z"/>
<path d="M2760 2515 l0 -215 60 0 60 0 0 80 0 80 70 0 70 0 0 -80 0 -80 60 0
60 0 0 215 0 215 -60 0 -60 0 0 -75 0 -75 -70 0 -70 0 0 75 0 75 -60 0 -60 0
0 -215z"/>
<path d="M3230 2515 l0 -215 65 0 65 0 0 60 c0 56 2 60 23 60 19 0 29 -12 52
-60 l29 -60 68 0 c37 0 68 3 68 6 0 3 -16 35 -36 70 l-36 64 30 34 c73 83 37
217 -67 246 -20 5 -87 10 -148 10 l-113 0 0 -215z m224 99 c21 -20 20 -58 0
-79 -11 -11 -30 -15 -58 -13 -40 3 -41 4 -44 42 -2 21 -1 44 2 52 7 19 80 18
100 -2z"/>
<path d="M3793 2713 c-3 -10 -39 -103 -80 -206 -40 -104 -73 -193 -73 -198 0
-5 28 -9 63 -9 60 0 63 1 74 30 11 30 12 30 85 30 73 0 74 0 85 -30 11 -29 13
-30 77 -30 l65 0 -22 58 c-12 31 -49 127 -82 212 l-61 155 -62 3 c-52 2 -63 0
-69 -15z m74 -261 c-21 -2 -41 -1 -44 2 -5 4 23 100 35 120 3 6 15 -19 27 -55
l22 -64 -40 -3z"/>
</g>
</svg>
